<svg xmlns="http://www.w3.org/2000/svg" version="1.0" viewBox="0 0 100 125"><path d="M88.057 45.287l-5.456-5.456c-1.295-1.295-2.356-3.857-2.356-5.69v-7.718c0-3.665-2.998-6.663-6.667-6.667H65.86c-1.833 0-4.395-1.061-5.69-2.357l-5.455-5.456c-2.592-2.591-6.836-2.591-9.428 0l-5.455 5.459c-1.296 1.295-3.861 2.357-5.69 2.357h-7.715c-3.665 0-6.667 2.998-6.667 6.667v7.711c0 1.833-1.061 4.395-2.356 5.69l-5.456 5.459c-2.594 2.591-2.594 6.833 0 9.43l5.456 5.456c1.296 1.296 2.356 3.86 2.356 5.69v7.715c0 3.665 3.002 6.667 6.667 6.667h7.715c1.833 0 4.395 1.061 5.69 2.356l5.455 5.456c2.592 2.591 6.836 2.591 9.428 0L60.17 82.6c1.296-1.296 3.857-2.356 5.69-2.356h7.718c3.669 0 6.667-3.002 6.667-6.667v-7.715c0-1.836 1.062-4.395 2.356-5.69l5.456-5.456c2.59-2.597 2.59-6.839 0-9.429zM77.888 55.459c-2.539 2.533-4.311 6.816-4.311 10.404v7.715h-7.718c-3.587 0-7.868 1.771-10.403 4.31L50 83.344l-5.456-5.456c-2.539-2.539-6.816-4.31-10.403-4.31h-7.715v-7.715c0-3.588-1.771-7.865-4.31-10.404L16.66 50l5.456-5.459c2.539-2.536 4.31-6.813 4.31-10.404v-7.711h7.715c3.587 0 7.864-1.774 10.403-4.31L50 16.657l5.457 5.456c2.535 2.539 6.816 4.31 10.403 4.31h7.718v7.718c0 3.587 1.771 7.865 4.311 10.404L83.343 50l-5.455 5.459z"/><path d="M34.713 45.576l9.996 9.997L65.286 35 70 39.713 44.709 65 30 50.29z"/><text y="115" font-size="5" font-weight="bold" font-family="'Helvetica Neue', Helvetica, Arial-Unicode, Arial, Sans-serif">Created by Danil Polshin</text><text y="120" font-size="5" font-weight="bold" font-family="'Helvetica Neue', Helvetica, Arial-Unicode, Arial, Sans-serif">from the Noun Project</text></svg>