<svg version="1.1" id="Layer_1" xmlns="http://www.w3.org/2000/svg" x="0" y="0" viewBox="0 0 64 64" xml:space="preserve"><path fill="#5981C1" stroke="#4766B0" stroke-width="3" stroke-linecap="round" stroke-linejoin="round" stroke-miterlimit="10" d="M32 3.238c-16.474 0-29.875 10.427-29.875 23.244 0 6.344 3.268 12.284 9.205 16.728.558.42.885 1.077.883 1.775-.035 8.449 5.123 13.294 9.125 15.778-1.286-6.165 2.003-9.619 3.776-10.984a2.18 2.18 0 011.65-.435c1.863.259 3.576.383 5.235.383 16.473 0 29.875-10.426 29.875-23.244C61.875 13.664 48.473 3.238 32 3.238z"/><g fill="#8CAEDC" stroke="#4766B0" stroke-linecap="round" stroke-linejoin="round" stroke-miterlimit="10"><circle stroke-width="2" cx="33.145" cy="26.604" r="3.916"/><path stroke-width="2" d="M29.282 27.237l-7.069 1.158m2.779-9.891l5.375 5.34m12.006-6.515l-6.45 6.515m-.32 5.808l3.805 4.716m-8.937-4.906l-5.034 5.378"/><circle cx="23.52" cy="17.042" r="2.075"/><circle cx="43.833" cy="15.854" r="2.075"/><circle cx="40.708" cy="35.979" r="2.075"/><circle cx="24.02" cy="36.354" r="2.075"/><circle cx="20.167" cy="28.729" r="2.075"/></g></svg>